<?xml version="1.0" encoding="utf-8"?><svg xmlns="http://www.w3.org/2000/svg" xmlns:xlink="http://www.w3.org/1999/xlink"><symbol fill="currentColor" viewBox="0 0 32.7 32.7" id="phone" xmlns="http://www.w3.org/2000/svg"><path d="M16.3 0C7.3 0 0 7.3 0 16.3s7.3 16.3 16.3 16.3c.6 0 1-.5 1-1 0-.6-.5-1-1-1C8.4 30.6 2 24.2 2 16.3S8.4 2 16.3 2s14.3 6.4 14.3 14.3c0 3.3-1.8 6.6-4.3 8-.9.5-1.9.8-3 .8.6-.4 1.2-.9 1.6-1.5.1-.1.2-.2.2-.4.3-.8.4-1.7.6-2.5.2-1.1-4.7-3.1-5.1-1.8-.2.5-.4 2-.7 2.5-.3.4-1 .2-1.4-.2-1.1-1-2.4-2.4-3.5-3.5l-.1-.1-.1-.1c-1.1-1.1-2.5-2.3-3.5-3.5-.4-.4-.5-1.1-.2-1.4.4-.3 2-.5 2.5-.7 1.3-.4-.8-5.3-1.8-5.1-.8.2-1.7.2-2.5.6.1.1 0 .2-.2.3-2.8 1.7-3.1 6-.4 9.2 1 1.2 2.1 2.4 3.2 3.6l.1.1.1.1c1.2 1.1 2.5 2.8 4.8 4.3 4.7 3.1 8.3 2.3 10.4 1.1 3.7-2 5.3-6.3 5.3-9.7C32.7 7.3 25.3 0 16.3 0z"/></symbol><symbol viewBox="0 0 240 240" id="telegram" xmlns="http://www.w3.org/2000/svg"><path fill="#00a2ff" d="M240 120c0 66.274-53.726 120-120 120S0 186.274 0 120 53.726 0 120 0s120 53.726 120 120z"/><path fill="#c8daea" d="M98 175c-3.888 0-3.227-1.468-4.568-5.17L82 132.207 170 80"/><path fill="#a9c9dd" d="M98 175c3 0 4.325-1.372 6-3l16-15.558-19.958-12.035"/><defs><linearGradient id="a" x1=".66" x2=".851" y1=".437" y2=".802" gradientUnits="userSpaceOnUse"><stop offset="0" stop-color="#eff7fc"/><stop offset="1" stop-color="#fff"/></linearGradient></defs><path fill="url(#a)" d="M100.04 144.41l48.36 35.729c5.519 3.045 9.501 1.468 10.876-5.123l19.685-92.763c2.015-8.08-3.08-11.746-8.36-9.349l-115.59 44.571c-7.89 3.165-7.843 7.567-1.438 9.528l29.663 9.259 68.673-43.325c3.242-1.966 6.218-.91 3.776 1.258"/></symbol><symbol id="viber" viewBox="0 0 301.7 311.9" xml:space="preserve" xmlns="http://www.w3.org/2000/svg"><style>.st1{fill:#FFFFFF}</style><path fill="#7D3DAF" d="M268.6 80.9c-4.9-19.2-29.8-43.1-49.6-47.5-45.3-8.6-91.2-8.6-136.4 0C62.8 37.8 37.8 61.7 33 80.9c-8.1 37.1-8.1 74.8 0 112 4.9 19.2 29.8 43.1 49.6 47.5.9.2 1.5.9 1.5 1.8v54.4c0 2.7 3.3 4.1 5.2 2.1l25.8-26.5s20.6-21.1 24.3-25c.4-.4.9-.6 1.4-.6 26.1.7 52.2-1.4 78.2-6.3 19.8-4.4 44.7-28.3 49.6-47.5 8.1-37.1 8.1-74.7 0-111.9zM152.1 59.6h-.6 1-.4zm31.7 71h-1.1 1.3-.2zm10 87.4c-3-.9 2.7-.8 0 0zm12.5-86.5s-.1-1.8 0-.7v.7z"/><path d="M294.9 75l-.1-.4c-7.3-29.4-40.1-61-70.2-67.6l-.3-.1c-48.8-9.3-98.2-9.3-146.9 0L77 7C46.8 13.6 14 45.2 6.7 74.6l-.1.4c-9 41.1-9 82.8 0 123.9l.1.4c7 28.2 37.4 58.3 66.4 66.6v32.9c0 11.9 14.5 17.7 22.7 9.1l33.3-34.6c7.2.4 14.4.6 21.7.6 24.5 0 49.1-2.3 73.5-7l.3-.1c30.1-6.6 63-38.2 70.2-67.6l.1-.4c9-41.1 9-82.7 0-123.8zm-26.3 117.9c-4.9 19.2-29.8 43.1-49.6 47.5-25.9 4.9-52 7-78.1 6.3-.5 0-1 .2-1.4.6-3.7 3.8-24.3 24.9-24.3 24.9l-25.9 26.5c-1.9 2-5.2.6-5.2-2.1v-54.4c0-.9-.6-1.7-1.5-1.8-19.8-4.4-44.7-28.3-49.6-47.5-8.1-37.1-8.1-74.8 0-112 4.9-19.2 29.8-43.1 49.6-47.5 45.3-8.6 91.2-8.6 136.4 0 19.8 4.4 44.7 28.3 49.6 47.5 8.1 37.2 8.1 74.8 0 112z" class="st1"/><path d="M193.8 218c-3-.9-5.9-1.5-8.6-2.7-27.9-11.6-53.6-26.5-74-49.4-11.6-13-20.6-27.7-28.3-43.3-3.6-7.4-6.7-15-9.8-22.7-2.8-6.9 1.3-14.1 5.8-19.4 4.1-4.9 9.5-8.7 15.2-11.4 4.5-2.2 8.9-.9 12.2 2.9 7.1 8.2 13.6 16.9 18.9 26.5 3.3 5.9 2.4 13.1-3.5 17.1-1.4 1-2.7 2.1-4.1 3.2-1.2 1-2.3 1.9-3.1 3.2-1.5 2.4-1.5 5.2-.6 7.8 7.3 20 19.5 35.5 39.6 43.9 3.2 1.3 6.4 2.9 10.2 2.5 6.2-.7 8.2-7.5 12.6-11.1 4.2-3.5 9.7-3.5 14.3-.6 4.6 2.9 9 6 13.4 9.2 4.3 3.1 8.6 6.1 12.6 9.6 3.8 3.4 5.2 7.8 3 12.4-4 8.4-9.7 15.4-18 19.9-2.3 1.2-5.1 1.6-7.8 2.4-3-.9 2.7-.8 0 0zM150.8 59.5c36.5 1 66.5 25.3 72.9 61.4 1.1 6.2 1.5 12.4 2 18.7.2 2.6-1.3 5.1-4.1 5.2-2.9 0-4.2-2.4-4.4-5-.4-5.2-.6-10.4-1.4-15.6-3.8-27.2-25.5-49.7-52.5-54.5-4.1-.7-8.2-.9-12.4-1.4-2.6-.3-6-.4-6.6-3.7-.5-2.7 1.8-4.9 4.4-5 .7-.1 1.4-.1 2.1-.1 36.6 1.1-.7 0 0 0z" class="st1"/><path d="M206.3 131.5c-.1.5-.1 1.5-.4 2.5-1 3.7-6.5 4.1-7.8.4-.4-1.1-.4-2.3-.4-3.5 0-7.7-1.7-15.5-5.6-22.2-4-6.9-10.1-12.7-17.3-16.2-4.3-2.1-9-3.4-13.8-4.2-2.1-.3-4.2-.6-6.3-.8-2.5-.4-3.9-2-3.8-4.5.1-2.3 1.8-4 4.4-3.9 8.4.5 16.5 2.3 23.9 6.2 15.1 8 23.8 20.7 26.3 37.6.1.8.3 1.5.4 2.3.2 1.9.3 3.8.4 6.3 0 .4-.1-2.5 0 0z" class="st1"/><path d="M183.6 130.6c-3.1.1-4.7-1.6-5-4.4-.2-2-.4-3.9-.9-5.8-.9-3.7-2.9-7.2-6.1-9.5-1.5-1.1-3.2-1.9-4.9-2.4-2.2-.6-4.6-.5-6.8-1-2.4-.6-3.8-2.6-3.4-4.8.3-2.1 2.4-3.7 4.6-3.5 14.2 1 24.3 8.3 25.7 25 .1 1.2.2 2.4 0 3.5-.4 1.8-1.8 2.8-3.2 2.9-3 0 1.4-.1 0 0z" class="st1"/></symbol><symbol viewBox="-1 0 512 512" id="whatsapp" xmlns="http://www.w3.org/2000/svg"><path fill="#e5e5e5" d="M10.895 512A10.895 10.895 0 01.387 498.23l33.285-121.546C12.949 339.21 2.023 296.82 2.039 253.789 2.098 113.848 115.98 0 255.91 0c67.871.027 131.645 26.465 179.578 74.434 47.926 47.972 74.309 111.742 74.29 179.558-.063 139.945-113.946 253.801-253.868 253.801h-.11c-40.87-.016-81.39-9.977-117.468-28.844L13.656 511.645c-.914.238-1.843.355-2.761.355zm0 0"/><path fill="#fff" d="M10.895 501.105l34.468-125.87c-21.261-36.84-32.445-78.63-32.43-121.442C12.989 119.859 121.98 10.895 255.91 10.895c64.992.027 125.996 25.324 171.871 71.238 45.871 45.914 71.125 106.945 71.102 171.855-.059 133.93-109.067 242.91-242.973 242.91-.008 0 .004 0 0 0h-.105c-40.664-.015-80.618-10.214-116.106-29.57zm134.77-77.75l7.378 4.372c31 18.398 66.543 28.128 102.789 28.148h.078c111.305 0 201.899-90.578 201.945-201.902.02-53.95-20.964-104.68-59.093-142.84-38.133-38.16-88.832-59.188-142.778-59.211C144.59 51.922 54 142.488 53.957 253.809c-.016 38.148 10.656 75.296 30.875 107.445l4.805 7.64-20.407 74.5zm0 0"/><path fill="#64b161" d="M19.344 492.625l33.277-121.52c-20.531-35.562-31.324-75.91-31.312-117.234.05-129.297 105.273-234.488 234.558-234.488 62.75.027 121.645 24.449 165.922 68.773 44.29 44.324 68.664 103.242 68.64 165.899-.054 129.3-105.28 234.504-234.55 234.504-.012 0 .004 0 0 0h-.106c-39.253-.016-77.828-9.868-112.085-28.54zm0 0"/><g fill="#fff"><path d="M10.895 501.105l34.468-125.87c-21.261-36.84-32.445-78.63-32.43-121.442C12.989 119.859 121.98 10.895 255.91 10.895c64.992.027 125.996 25.324 171.871 71.238 45.871 45.914 71.125 106.945 71.102 171.855-.059 133.93-109.067 242.91-242.973 242.91-.008 0 .004 0 0 0h-.105c-40.664-.015-80.618-10.214-116.106-29.57zm134.77-77.75l7.378 4.372c31 18.398 66.543 28.128 102.789 28.148h.078c111.305 0 201.899-90.578 201.945-201.902.02-53.95-20.964-104.68-59.093-142.84-38.133-38.16-88.832-59.188-142.778-59.211C144.59 51.922 54 142.488 53.957 253.809c-.016 38.148 10.656 75.296 30.875 107.445l4.805 7.64-20.407 74.5zm0 0"/><path fill-rule="evenodd" d="M195.184 152.246c-4.547-10.11-9.336-10.312-13.664-10.488-3.54-.153-7.59-.145-11.633-.145-4.047 0-10.625 1.524-16.188 7.598-5.566 6.074-21.254 20.762-21.254 50.633 0 29.875 21.758 58.738 24.793 62.793 3.035 4.05 42 67.308 103.707 91.644 51.285 20.227 61.72 16.203 72.852 15.192 11.133-1.012 35.918-14.688 40.976-28.864 5.063-14.175 5.063-26.324 3.543-28.867-1.52-2.527-5.566-4.047-11.636-7.082-6.07-3.035-35.918-17.726-41.485-19.75-5.566-2.027-9.613-3.035-13.66 3.043-4.05 6.07-15.676 19.742-19.219 23.79-3.543 4.058-7.086 4.566-13.156 1.527-6.07-3.043-25.625-9.45-48.82-30.133-18.047-16.09-30.235-35.965-33.777-42.043-3.54-6.07-.06-9.07 2.667-12.387 4.91-5.973 13.149-16.71 15.172-20.758 2.024-4.054 1.012-7.597-.504-10.637-1.52-3.035-13.32-33.058-18.714-45.066zm0 0"/></g></symbol></svg>